# xmcd
#
# Track frame offsets:
#	150
#	14252
#	28150
#	41652
#
# Disc length: 692 seconds
#
# Revision: 3
# Processed by: cddbd v1.5.2PL0 Copyright (c) Steve Scherf et al.
# Submitted via: EasyCDDAExtractor 11.1.0.1
#
DISCID=2a02b204
DTITLE=Leon Seiter - promo
DYEAR=1996
DGENRE=country
TTITLE0=You can always count on me
TTITLE1=It's a long way through Kentucky
TTITLE2=Love is just a game
TTITLE3=Jimmie Rodgers' last blue yodel
EXTD=Disc Three. YEAR: 1996
EXTT0=Live.
EXTT1=
EXTT2=Mark Radcliffe session.
EXTT3=Mark Radcliffe session.
PLAYORDER=
